<svg width="130" height="32" viewBox="0 0 130 32" fill="none" xmlns="http://www.w3.org/2000/svg">
<path fill-rule="evenodd" clip-rule="evenodd" d="M123.879 4.11296C116.689 9.27233 116.7 9.26258 118.089 9.26258C118.667 9.26258 119.14 9.34833 119.14 9.45292C119.14 9.55751 117.377 11.9959 115.222 14.8712C113.066 17.7468 111.438 20.2332 111.438 20.2332C111.438 20.2332 113.518 18.782 115.897 16.8448C119.878 13.6037 122.287 11.651 125.451 9.10017C126.116 8.56423 126.66 8.0455 126.66 7.9474C126.66 7.84931 126.125 7.83112 125.472 7.9068C124.062 8.07051 123.92 8.38461 127.403 3.63125C128.822 1.69535 129.933 0.0618543 129.872 0.00143858C129.811 -0.0589771 127.114 1.79117 123.879 4.11296ZM113.659 1.2234C113.13 1.874 109.307 9.5874 109.514 9.5874C109.617 9.5874 109.986 9.43603 110.334 9.25121C110.854 8.97479 110.966 9.02254 110.966 9.51951C110.966 10.2536 110.159 18.3295 110.159 18.3295C110.159 18.3295 110.518 19.0944 112.247 14.6155C113.143 12.2967 114.245 9.47241 114.697 8.33945C115.185 7.11717 115.358 6.34476 115.122 6.44058C113.632 7.04701 113.696 7.11945 113.815 4.97079C113.877 3.84758 113.968 2.45347 114.016 1.87303C114.116 0.677705 114.111 0.667636 113.659 1.2234ZM6.46701 6.47242C5.89679 7.94838 -0.134067 31.5206 0.00227667 31.7398C0.254366 32.1452 4.63209 32.0513 4.89105 31.6349C5.01562 31.4345 5.25071 29.2784 5.41288 26.8439C5.78497 21.2551 5.90169 20.9572 7.72027 20.952C13.6236 20.9358 19.9644 16.3465 20.8606 11.4408C21.3311 8.86663 21.5289 8.93777 13.9087 8.93777H7.13762L7.25859 7.67651C7.38121 6.39966 6.82308 5.55059 6.46701 6.47242ZM14.392 11.37C14.4946 11.636 14.3966 12.6075 14.1742 13.529C13.465 16.4647 10.8617 18.6689 7.53226 19.1513L5.94779 19.3809L6.12534 18.4633C6.22343 17.9585 6.39214 16.4491 6.50102 15.1093C6.6099 13.7694 6.77632 12.2713 6.87114 11.7799L7.04345 10.8867H10.6244C13.4931 10.8867 14.2422 10.9828 14.392 11.37ZM123.963 15.5247C121.85 15.6975 120.121 15.945 120.121 16.0743C120.121 16.2036 120.452 16.4572 120.857 16.6378C121.515 16.9321 121.111 17.2118 117.015 19.2994C111.865 21.9242 111.575 21.8375 120.728 20.4096C126.324 19.5365 126.393 19.5157 125.668 18.9327C125.264 18.6072 124.991 18.2967 125.061 18.2428C125.131 18.1885 126.219 17.5941 127.478 16.9217C131.262 14.9007 131.318 14.9228 123.963 15.5247ZM24.8787 19.8298C24.1966 20.0786 23.2403 20.5558 22.7534 20.8907C21.2134 21.9492 21.1804 21.9466 21.3184 20.7708L21.4495 19.6567H19.3311H17.213L17.0103 20.8747C16.6725 22.9048 16.768 31.6167 17.1303 31.8392C17.3118 31.9506 17.7165 31.5748 18.0295 31.0041C19.3697 28.5612 20.6723 26.9709 21.8173 26.3807C22.4909 26.0335 23.1389 25.8454 23.2573 25.9627C23.5565 26.2602 23.5427 28.3283 23.2308 29.9267C23.0179 31.0178 23.0673 31.3013 23.4989 31.466C23.87 31.6073 24.194 31.3601 24.5831 30.6384C25.9354 28.1305 28.9991 25.5479 30.1163 25.9737C30.5378 26.1345 30.5855 26.5658 30.4028 28.5699C30.1876 30.9275 30.4397 31.7661 31.1149 30.9405C31.296 30.7193 32.7307 28.1474 34.3031 25.2253C36.5723 21.0089 37.0686 19.8538 36.7086 19.6271C35.9432 19.1457 33.6731 19.2994 31.7286 19.964C30.2821 20.4583 29.879 20.5012 29.879 20.1611C29.879 19.2354 27.0275 19.0464 24.8787 19.8298ZM62.1948 19.937C61.3561 20.2725 60.2157 20.8682 59.6608 21.2609C59.106 21.6533 58.6518 21.9271 58.6518 21.869C58.6518 21.8112 58.7888 21.2895 58.9559 20.7101L59.26 19.6567H56.8234H54.3869L54.4758 25.747C54.5317 29.5652 54.6867 31.8227 54.8917 31.7983C55.0716 31.7769 55.5738 31.0743 56.008 30.2372C57.2148 27.9102 58.9637 26.1329 60.1232 26.0559C61.227 25.9825 61.2397 26.0504 60.7761 29.4824C60.4737 31.7203 60.8879 31.9344 62.0333 30.132C63.5674 27.717 67.5501 19.9432 67.3536 19.7476C66.841 19.2383 63.6478 19.3556 62.1948 19.937ZM43.6595 20.6305C37.7029 22.7593 33.9006 27.8852 36.6635 30.0625C37.4577 30.6884 37.8193 30.7478 39.7615 30.5718C40.9706 30.4623 42.6996 30.0829 43.6033 29.7292L45.2463 29.0858V29.8932V30.7004H48.7213H52.1962L51.9984 29.472C51.6927 27.5721 50.8102 20.8426 50.8073 20.3875C50.803 19.7122 45.7482 19.8841 43.6595 20.6305ZM73.6595 20.4869C67.6325 22.3312 64.5555 27.3633 67.9258 29.863C69.1483 30.7699 72.8538 30.9512 75.6448 30.2411C79.6694 29.2167 81.5642 27.9966 80.6071 27.0459C80.338 26.7786 79.6815 26.9118 78.1163 27.5504C76.9471 28.0272 75.414 28.5092 74.709 28.6209C73.6317 28.7921 73.3704 28.7187 73.0693 28.1597C71.9651 26.1098 74.0054 21.9304 76.1107 21.9304C76.7071 21.9304 77.0897 22.2084 77.4523 22.9048C77.9473 23.8556 78.0186 23.8793 80.4034 23.8793H82.8472V22.9614C82.8472 21.9346 81.8725 20.8614 80.4554 20.3281C79.1786 19.8473 75.466 19.9341 73.6595 20.4869ZM90.9863 20.7526C84.7223 22.9497 80.9825 28.4153 84.5055 30.2252C85.7575 30.8683 87.1589 30.8229 89.8769 30.0508C91.1344 29.6935 92.2745 29.4011 92.4099 29.4011C92.5453 29.4011 92.6561 29.6935 92.6561 30.0508C92.6561 30.6592 92.8742 30.7004 96.0892 30.7004C98.8652 30.7004 99.5223 30.6104 99.5223 30.2311C99.5223 29.5324 98.2321 20.8585 98.0579 20.3875C97.792 19.6677 93.4392 19.8925 90.9863 20.7526ZM100.904 20.3807C100.654 20.6798 100.646 22.2224 100.876 25.6706C101.364 32.9767 101.83 33.4756 103.779 28.7843L104.836 26.2404L107.084 26.0529C108.321 25.95 109.457 25.7889 109.611 25.695C109.978 25.4693 110.797 20.6798 110.516 20.4005C110.396 20.2813 109.635 20.5038 108.825 20.8946C107.006 21.7729 106.978 21.7725 107.104 20.8747C107.202 20.1686 107.106 20.1407 104.231 20.051C102.094 19.9844 101.157 20.0773 100.904 20.3807ZM46.8249 22.6869C47.0338 23.774 46.5453 24.8778 45.227 26.2985C43.0762 28.6167 40.9837 29.0731 41.0072 27.2187C41.0435 24.3964 46.3583 20.2563 46.8249 22.6869ZM94.2298 23.1478C94.4315 25.224 90.5861 28.9536 88.9048 28.3127C87.5319 27.7891 89.1906 24.2476 91.5088 22.7528C93.2355 21.6394 94.0954 21.7644 94.2298 23.1478Z" fill="#313131"/>
</svg>
